<svg width="25" height="25" viewBox="0 0 25 25" fill="none" xmlns="http://www.w3.org/2000/svg">
<g clip-path="url(#clip0_5_115)">
<path d="M23.6035 11.9239L17.1826 14.0186H21.9551C21.473 14.5371 22.1382 13.866 19.6973 16.3072L12.4902 18.7056H17.2871C13.6255 22.2759 7.78517 22.1538 5.23634 21.3472L2.00685 24.5694C1.54913 25.0271 0.805676 25.0271 0.347668 24.5694C-0.110339 24.1116 -0.110046 23.3682 0.347668 22.9102L13.0186 10.2539C13.3237 9.94875 13.3237 9.45461 13.0186 9.14944C12.7134 8.84431 12.2193 8.84431 11.9141 9.14944L3.20314 17.8506C2.87013 14.9463 3.35011 10.5811 6.30372 7.63186L10.4902 3.44827C14.9151 -0.976538 19.7578 -0.861792 22.8096 2.18948C25.2832 4.6553 25.8252 8.28616 23.6035 11.9239Z" fill="#F5F5F5"/>
</g>
<defs>
<clipPath id="clip0_5_115">
<rect width="25" height="25" fill="white"/>
</clipPath>
</defs>
</svg>
