<svg width="28" height="25" viewBox="0 0 28 25" fill="none" xmlns="http://www.w3.org/2000/svg">
<path d="M27.9903 12.4756C27.9903 13.3545 27.2611 14.043 26.4347 14.043H24.8792L24.9132 21.8604C24.9132 21.9971 24.9035 22.124 24.8889 22.2559V23.0469C24.8889 24.126 24.0188 25 22.9444 25H22.1667C22.1132 25 22.0597 24.9561 22.0063 24.9951C21.9382 24.9561 21.8701 25 21.8021 25H19.0556C17.9813 25 17.1111 24.126 17.1111 23.0469V18.75C17.1111 17.8857 16.416 17.1875 15.5556 17.1875H12.4444C11.584 17.1875 10.8889 17.8857 10.8889 18.75V23.0469C10.8889 24.126 10.0188 25 8.94444 25H6.22708C6.15417 25 6.08125 24.9951 6.00833 24.9902C5.95 24.9951 5.89167 25 5.83333 25H5.05556C3.98174 25 3.11111 24.126 3.11111 23.0469V17.5781C3.11111 17.5342 3.11257 17.4854 3.11549 17.4414V14.043H1.55799C0.681528 14.043 0 13.3545 0 12.4756C0 12.0361 0.146028 11.6455 0.486597 11.3037L12.95 0.391406C13.2903 0.0489258 13.6792 0 14.0194 0C14.3597 0 14.7486 0.0978515 15.0451 0.34248L27.4556 11.3037C27.8444 11.6455 28.0438 12.0361 27.9903 12.4756Z" fill="#F5F5F5"/>
</svg>
