<svg width="32" height="32" viewBox="0 0 32 32" fill="none" xmlns="http://www.w3.org/2000/svg">
<g clip-path="url(#clip0_1_50)">
<path d="M31.2688 27.7312L23.7875 20.25C25.4888 17.7244 26.3281 14.5687 25.8788 11.2062C25.1125 5.48685 20.425 0.832479 14.7 0.107666C6.18813 -0.969396 -0.969371 6.1881 0.107754 14.7C0.832754 20.4275 5.48775 25.1187 11.2078 25.8812C14.5703 26.3305 17.7265 25.4915 20.2515 23.79L27.7328 31.2712C28.709 32.2475 30.2921 32.2475 31.2684 31.2712C32.2438 30.2937 32.2438 28.7062 31.2688 27.7312ZM4.94375 13C4.94375 8.58873 8.5325 4.99998 12.9438 4.99998C17.355 4.99998 20.9438 8.58873 20.9438 13C20.9438 17.4112 17.355 21 12.9438 21C8.5325 21 4.94375 17.4125 4.94375 13Z" fill="#F5F5F5"/>
</g>
<defs>
<clipPath id="clip0_1_50">
<rect width="32" height="32" fill="white"/>
</clipPath>
</defs>
</svg>
