<svg width="150" height="74" viewBox="0 0 150 74" fill="none" xmlns="http://www.w3.org/2000/svg">
<path d="M30.0879 43.3867C30.542 46.4189 30.4761 49.1509 29.8901 51.5825C28.396 57.7202 24.0967 60.8403 16.9922 60.9429C12.2607 61.0015 8.75977 59.5439 6.48926 56.5703C4.57031 54.0654 4.03564 50.689 4.88525 46.4409C5.19287 44.9321 5.75684 43.2988 6.57715 41.541C6.9873 40.6328 7.45605 40.2593 7.9834 40.4204C8.52539 40.5669 8.60596 41.1528 8.2251 42.1782C6.96533 45.6353 6.74561 48.6895 7.56592 51.3408C8.69385 55.0762 11.8359 56.9365 16.9922 56.9219C23.7158 56.8926 27.3047 54.3438 27.7588 49.2754C27.8906 47.7666 27.5098 45.9136 26.6162 43.7163C24.9756 39.688 25.2905 37.3809 27.561 36.7949L28.3301 36.5972C29.2676 39.6294 29.8535 41.8926 30.0879 43.3867ZM17.146 33.0376L19.2554 35.147C19.5923 35.4839 19.6069 35.8135 19.2993 36.1357L17.0801 38.355C16.7139 38.6919 16.355 38.6919 16.0034 38.355L13.8062 36.1577C13.4546 35.8208 13.4839 35.4619 13.894 35.0811L15.9375 33.0156C16.333 32.6201 16.7358 32.6274 17.146 33.0376ZM43.7109 36.9927C45.8057 37.0073 47.439 38.2231 48.6108 40.6401C49.5923 42.6616 50.1343 45.1079 50.2368 47.979H52.6978C53.2104 47.979 53.4668 48.6016 53.4668 49.8467V49.9785C53.4668 51.3262 53.2104 52 52.6978 52H50.1489C49.5044 55.7207 47.9224 58.5112 45.4028 60.3716C43.8501 61.5142 42.4438 62.0854 41.1841 62.0854C39.1772 62.0854 36.9653 61.7925 34.5483 61.2065C33.7134 61.0015 33.2446 60.6499 33.1421 60.1519C33.0542 59.771 33.6401 59.4707 34.8999 59.251C41.0669 58.1963 45 56.3359 46.6992 53.6699C47.0361 53.1279 47.2998 52.564 47.4902 51.978C46.2158 52.0513 44.9927 52.0952 43.8208 52.1099C41.0083 52.1245 39.0674 51.502 37.998 50.2422C37.207 49.3047 36.8188 48.1108 36.8335 46.6606C36.8335 44.771 37.3755 42.7861 38.4595 40.7061C39.7778 38.2012 41.5283 36.9634 43.7109 36.9927ZM43.1396 40.8379C41.5137 40.9697 40.415 42.4199 39.8438 45.1885C39.4336 47.21 40.7373 48.1841 43.7549 48.1108C45.0146 48.0815 46.2744 48.0522 47.5342 48.0229C47.3291 45.8989 46.9043 44.1777 46.2598 42.8594C45.5273 41.3945 44.4873 40.7207 43.1396 40.8379ZM68.4741 52H68.0127C64.7021 52 62.4683 50.7915 61.311 48.3745C59.6704 50.7915 56.9165 52 53.0493 52H52.5C51.4014 52 50.8521 51.3262 50.8521 49.9785V49.8467C50.8521 48.6016 51.4014 47.979 52.5 47.979H53.0273C55.166 47.979 56.8066 47.752 57.9492 47.2979C58.9307 46.9023 59.5386 45.8257 59.7729 44.0679L60.0586 41.7827C60.249 40.3472 61.1572 39.6001 62.7832 39.5415L63.1128 39.5195L62.7612 42.354C62.2778 46.104 64.0649 47.979 68.1226 47.979H68.4741C68.9868 47.979 69.2432 48.6016 69.2432 49.8467V49.9785C69.2432 51.3262 68.9868 52 68.4741 52ZM56.2134 28.1816L58.3228 30.269C58.6011 30.5474 58.6084 30.8184 58.3447 31.082L56.1255 33.2793C55.8179 33.6016 55.5176 33.6089 55.2246 33.3013L53.0054 31.082C52.7563 30.8184 52.7783 30.5327 53.0713 30.2251L55.1807 28.1377C55.5029 27.8008 55.8472 27.8154 56.2134 28.1816ZM62.5854 28.1816L64.6948 30.269C64.9731 30.5474 64.9805 30.8184 64.7168 31.082L62.4976 33.2793C62.2046 33.6016 61.9043 33.6089 61.5967 33.3013L59.4214 31.082C59.1284 30.8184 59.1504 30.5181 59.4873 30.1812L61.5527 28.1377C61.8896 27.8008 62.2339 27.8154 62.5854 28.1816ZM68.2764 52C67.1777 52 66.6284 51.3262 66.6284 49.9785V49.8467C66.6284 48.6016 67.1777 47.979 68.2764 47.979H74.0552C75.1538 47.979 75.7031 48.6016 75.7031 49.8467V49.9785C75.7031 51.3262 75.1538 52 74.0552 52H68.2764ZM73.8574 52C72.7588 52 72.2095 51.3262 72.2095 49.9785V49.8467C72.2095 48.6016 72.7588 47.979 73.8574 47.979H79.6362C80.7349 47.979 81.2842 48.6016 81.2842 49.8467V49.9785C81.2842 51.3262 80.7349 52 79.6362 52H73.8574ZM79.4385 52C78.3398 52 77.7905 51.3262 77.7905 49.9785V49.8467C77.7905 48.6016 78.3398 47.979 79.4385 47.979H85.2173C86.3159 47.979 86.8652 48.6016 86.8652 49.8467V49.9785C86.8652 51.3262 86.3159 52 85.2173 52H79.4385ZM101.455 17.481L87.854 22.1392V21.6777C87.854 19.7734 88.7915 18.5137 90.6665 17.8984L104.883 13.1743V13.6138C104.883 15.4009 103.74 16.6899 101.455 17.481ZM85.5688 52C85.5688 52 85.3857 52 85.0195 52C83.9209 52 83.3716 51.3262 83.3716 49.9785V49.8467C83.3716 48.6016 83.9209 47.979 85.0195 47.979H85.5469C89.0918 47.979 91.8237 47.459 93.7427 46.4189C94.7974 45.8477 95.2661 45.2104 95.1489 44.5073C95.0464 43.9214 94.6802 43.1816 94.0503 42.2881C88.9233 35.2422 86.228 31.2065 85.9644 30.1812C85.2905 27.5591 86.2573 25.7866 88.8647 24.8638L104.993 19.1729V19.7222C104.993 22.1392 103.25 23.897 99.7632 24.9956L89.2163 28.3574C89.6118 29.5586 92.417 34.1362 97.6318 42.0903C98.2764 43.0718 98.5181 44.2144 98.3569 45.5181C98.2397 46.4116 97.8589 47.2686 97.2144 48.0889C95.1782 50.6963 91.2964 52 85.5688 52ZM134.59 52C130.532 52 127.932 49.0923 126.79 43.2769C126.277 44.9321 125.339 46.5142 123.977 48.0229C121.531 50.7036 117.993 52.0366 113.364 52.022C109.907 51.9927 108.201 50.8281 108.245 48.5283L108.267 48.0449C113.174 48.3379 116.477 48.1255 118.176 47.4077C116.975 42.0903 114.155 36.1504 109.717 29.5879C107.065 25.6768 106.846 22.8643 109.058 21.1504L109.475 20.8208C115.408 30.4448 118.967 38.9849 120.154 46.4409C122.747 45.1958 124.512 42.9692 125.449 39.7612C126.182 36.978 126.335 33.9971 125.911 30.8184L125.317 26.27C124.849 22.6812 125.881 20.3228 128.416 19.1948L128.965 18.9312V36.1138C128.965 39.3511 129.309 42.1196 129.998 44.4194C130.701 46.7925 132.268 47.979 134.7 47.979H135.271C136.37 47.979 136.919 48.6016 136.919 49.8467V49.9785C136.919 51.3262 136.37 52 135.271 52H134.59ZM140.874 57.4492L142.983 59.5586C143.32 59.8955 143.335 60.2251 143.027 60.5474L140.808 62.7666C140.442 63.1035 140.083 63.1035 139.731 62.7666L137.534 60.5693C137.183 60.2324 137.212 59.8735 137.622 59.4927L139.666 57.4272C140.061 57.0317 140.464 57.0391 140.874 57.4492ZM135.557 47.979C140.815 47.979 143.203 46.6387 142.72 43.958C142.661 43.665 142.522 43.2183 142.302 42.6177C141.79 41.2261 141.467 40.2886 141.335 39.8052C140.72 37.5786 141.541 35.9307 143.796 34.8613L144.148 34.6855C145.276 38.04 145.833 41.1235 145.818 43.936C145.818 46.1919 145.21 48.0156 143.994 49.4072C142.5 51.1357 139.695 52 135.579 52H135.029C133.931 52 133.381 51.3262 133.381 49.9785V49.8467C133.381 48.6016 133.931 47.979 135.029 47.979H135.557Z" fill="#DBFF00"/>
</svg>
